<svg width="34" height="34" viewBox="0 0 34 34" fill="none" xmlns="http://www.w3.org/2000/svg">
<circle cx="17" cy="17" r="16" fill="#ED068D" stroke="#ED068D" stroke-width="2"/>
<path d="M18.3087 17.1682C18.2973 17.4195 18.2154 17.6622 18.0711 17.8682C17.9263 18.081 17.718 18.2426 17.4759 18.3299C17.2362 18.4274 16.9725 18.4495 16.7199 18.3931C16.4662 18.3391 16.2345 18.21 16.0551 18.0226C15.8775 17.8265 15.7608 17.5831 15.7191 17.3219C15.6725 17.0688 15.7044 16.8076 15.8103 16.5731C15.9137 16.3383 16.0831 16.138 16.2999 15.9987C16.5203 15.8623 16.7752 15.7898 17.0351 15.7891C17.3776 15.8077 17.6999 15.9556 17.9383 16.2019C18.0616 16.33 18.1579 16.4815 18.2215 16.6475C18.2851 16.8135 18.3148 16.9906 18.3087 17.1682Z" fill="white"/>
<path d="M20.7797 14.1271C20.6981 13.9253 20.5767 13.742 20.4228 13.588C20.2689 13.4341 20.0855 13.3127 19.8837 13.2311C19.6804 13.1524 19.4649 13.1098 19.2469 13.1055H14.8229C14.3853 13.1072 13.9661 13.2818 13.6566 13.5912C13.3472 13.9007 13.1726 14.3199 13.1709 14.7575V19.2655C13.1715 19.4829 13.2151 19.6981 13.2991 19.8987C13.3832 20.0993 13.506 20.2813 13.6605 20.4343C13.9699 20.7412 14.3872 20.9147 14.8229 20.9175H19.2469C19.5728 20.9154 19.8909 20.8177 20.1618 20.6367C20.4327 20.4556 20.6446 20.199 20.7711 19.8987C20.855 19.6981 20.8984 19.4829 20.8989 19.2655V14.7639C20.8966 14.5463 20.8563 14.3308 20.7797 14.1271ZM19.0301 18.0335C18.925 18.2958 18.7677 18.5339 18.5677 18.7335C18.3667 18.9366 18.1291 19.0996 17.8677 19.2166C17.5846 19.3354 17.2802 19.3949 16.9732 19.3914C16.6663 19.3879 16.3632 19.3216 16.0829 19.1965C15.632 18.9935 15.2621 18.6452 15.0324 18.2073C14.8026 17.7693 14.7264 17.267 14.8157 16.7806C14.9013 16.3512 15.1078 15.9551 15.4109 15.6391C15.7196 15.3297 16.1123 15.1177 16.5404 15.0294C16.9684 14.9411 17.413 14.9803 17.8189 15.1423C18.226 15.3074 18.5727 15.5932 18.8125 15.9615C19.0549 16.3166 19.1865 16.7356 19.1909 17.1655C19.201 17.4634 19.1457 17.7592 19.0301 18.0335ZM19.7997 14.5751C19.8065 14.6311 19.8013 14.6878 19.7845 14.7416C19.7677 14.7954 19.7397 14.845 19.7023 14.8872C19.6649 14.9294 19.619 14.9631 19.5676 14.9862C19.5162 15.0094 19.4605 15.0213 19.4041 15.0213C19.3478 15.0213 19.2921 15.0094 19.2407 14.9862C19.1893 14.9631 19.1434 14.9294 19.106 14.8872C19.0686 14.845 19.0406 14.7954 19.0238 14.7416C19.007 14.6878 19.0018 14.6311 19.0085 14.5751C19.0001 14.5183 19.0041 14.4603 19.0201 14.4051C19.0361 14.3499 19.0638 14.2988 19.1014 14.2553C19.1389 14.2118 19.1854 14.1769 19.2376 14.153C19.2899 14.1291 19.3467 14.1167 19.4041 14.1167C19.4616 14.1167 19.5184 14.1291 19.5706 14.153C19.6229 14.1769 19.6693 14.2118 19.7069 14.2553C19.7444 14.2988 19.7722 14.3499 19.7882 14.4051C19.8042 14.4603 19.8081 14.5183 19.7997 14.5751Z" fill="white"/>
<path d="M20.5 10H13.5C12.5717 10 11.6815 10.3687 11.0251 11.0251C10.3687 11.6815 10 12.5717 10 13.5V20.5C10 20.9596 10.0905 21.4148 10.2664 21.8394C10.4423 22.264 10.7001 22.6499 11.0251 22.9749C11.6815 23.6313 12.5717 24 13.5 24H20.5C20.9596 24 21.4148 23.9095 21.8394 23.7336C22.264 23.5577 22.6499 23.2999 22.9749 22.9749C23.2999 22.6499 23.5577 22.264 23.7336 21.8394C23.9095 21.4148 24 20.9596 24 20.5V13.5C24 13.0404 23.9095 12.5852 23.7336 12.1606C23.5577 11.736 23.2999 11.3501 22.9749 11.0251C22.6499 10.7001 22.264 10.4423 21.8394 10.2664C21.4148 10.0905 20.9596 10 20.5 10ZM21.984 19.1984C21.9912 19.5645 21.9215 19.9299 21.7808 20.2688C21.4968 20.9489 20.9561 21.4896 20.276 21.7736C19.9364 21.9144 19.5724 21.9833 19.2048 21.9768H14.9C14.533 21.9821 14.1686 21.9132 13.8288 21.7744C13.4922 21.6328 13.1857 21.4284 12.9256 21.172C12.6681 20.9131 12.4637 20.6062 12.324 20.2688C12.1758 19.9312 12.0995 19.5664 12.1 19.1976V14.8591C12.095 14.492 12.1641 14.1276 12.3032 13.7879C12.5809 13.1049 13.1167 12.559 13.7944 12.2687C14.1464 12.1318 14.5225 12.0676 14.9 12.0799H19.24C19.6039 12.0766 19.9647 12.146 20.3013 12.2843C20.6379 12.4225 20.9435 12.6266 21.2 12.8847C21.4563 13.1446 21.6602 13.4519 21.8016 13.7879C21.9416 14.1275 22.0113 14.4915 22.0048 14.8591L21.984 19.1984Z" fill="white"/>
</svg>
