<svg width="34" height="34" viewBox="0 0 34 34" fill="none" xmlns="http://www.w3.org/2000/svg">
<path d="M24.931 17.5819C24.8316 18.2323 24.6247 18.8593 24.3198 19.4346C24.1766 19.7075 23.475 20.7467 23.2598 21.0212C22.0774 22.527 20.0975 24.2643 16.7863 25.9537C16.7161 25.9897 16.6379 26.0052 16.56 25.9985C16.4821 25.9918 16.4074 25.9632 16.3436 25.9157C16.2798 25.8682 16.2294 25.8035 16.1975 25.7284C16.1656 25.6533 16.1534 25.5706 16.1623 25.4888L16.3303 23.9014C16.3369 23.8412 16.3321 23.7803 16.3162 23.7222C16.3003 23.664 16.2736 23.6097 16.2377 23.5624C16.2018 23.5151 16.1573 23.4758 16.1069 23.4467C16.0565 23.4175 16.0011 23.3992 15.9439 23.3927C12.0248 22.959 9 20.1395 9 16.7254C9 13.0115 12.5808 10 16.9975 10C21.2903 10 24.7926 12.8439 24.987 16.413C24.9926 16.5166 25.0078 16.8475 24.995 17.0699C24.9862 17.2046 24.9678 17.3772 24.931 17.5819ZM12.6 18.0872V15.255C12.6024 15.1968 12.5936 15.1388 12.5742 15.0843C12.5547 15.0298 12.525 14.98 12.4867 14.9379C12.4485 14.8958 12.4025 14.8623 12.3517 14.8395C12.3008 14.8166 12.2461 14.8048 12.1908 14.8048C12.1354 14.8048 12.0807 14.8166 12.0298 14.8395C11.979 14.8623 11.933 14.8958 11.8948 14.9379C11.8566 14.98 11.8268 15.0298 11.8074 15.0843C11.7879 15.1388 11.7791 15.1968 11.7816 15.255V18.52C11.7816 18.7592 11.9656 18.9529 12.1912 18.9529H13.8271C13.9361 18.9529 14.0406 18.9073 14.1176 18.8262C14.1947 18.7451 14.2379 18.6352 14.2379 18.5205C14.2379 18.4058 14.1947 18.2958 14.1176 18.2147C14.0406 18.1336 13.9361 18.088 13.8271 18.088H12.6V18.0872ZM15.1231 18.9529C15.1652 18.9529 15.2069 18.9442 15.2458 18.9272C15.2846 18.9102 15.32 18.8853 15.3497 18.8539C15.3794 18.8226 15.403 18.7853 15.419 18.7444C15.435 18.7034 15.4432 18.6595 15.4431 18.6152V15.1607C15.4433 15.1163 15.4352 15.0723 15.4192 15.0313C15.4032 14.9902 15.3797 14.9529 15.35 14.9214C15.3202 14.89 15.2849 14.865 15.246 14.848C15.207 14.8309 15.1653 14.8222 15.1231 14.8222H14.9447C14.9026 14.8222 14.8608 14.8309 14.8219 14.848C14.783 14.865 14.7476 14.89 14.7179 14.9214C14.6882 14.9529 14.6646 14.9902 14.6486 15.0313C14.6326 15.0723 14.6245 15.1163 14.6247 15.1607V18.6152C14.6247 18.7045 14.6584 18.7902 14.7185 18.8534C14.7785 18.9166 14.8599 18.9521 14.9447 18.9521L15.1231 18.9529ZM18.4295 15.255V17.2501C18.4295 17.2501 16.7959 14.9965 16.7703 14.9678C16.7308 14.9199 16.6815 14.8819 16.6261 14.8568C16.5707 14.8317 16.5106 14.8202 16.4503 14.823C16.3424 14.8305 16.2415 14.8814 16.1682 14.9651C16.095 15.0488 16.055 15.1589 16.0567 15.2727V18.52C16.0543 18.5782 16.063 18.6363 16.0825 18.6908C16.102 18.7453 16.1317 18.7951 16.17 18.8372C16.2082 18.8792 16.2541 18.9127 16.305 18.9356C16.3559 18.9585 16.4106 18.9703 16.4659 18.9703C16.5212 18.9703 16.576 18.9585 16.6268 18.9356C16.6777 18.9127 16.7236 18.8792 16.7619 18.8372C16.8001 18.7951 16.8299 18.7453 16.8493 18.6908C16.8688 18.6363 16.8775 18.5782 16.8751 18.52V16.5376C16.8751 16.5376 18.5335 18.8097 18.5583 18.8342C18.6303 18.9066 18.7271 18.9521 18.8351 18.9521C19.0623 18.9546 19.2479 18.7424 19.2479 18.5024V15.255C19.2503 15.1968 19.2415 15.1388 19.2221 15.0843C19.2026 15.0298 19.1729 14.98 19.1346 14.9379C19.0964 14.8958 19.0505 14.8623 18.9996 14.8395C18.9487 14.8166 18.894 14.8048 18.8387 14.8048C18.7834 14.8048 18.7286 14.8166 18.6778 14.8395C18.6269 14.8623 18.581 14.8958 18.5427 14.9379C18.5045 14.98 18.4747 15.0298 18.4553 15.0843C18.4358 15.1388 18.427 15.1968 18.4295 15.255ZM22.3158 15.255C22.3163 15.1982 22.306 15.1418 22.2856 15.0892C22.2651 15.0366 22.235 14.9888 22.1969 14.9485C22.1588 14.9083 22.1135 14.8764 22.0636 14.8547C22.0137 14.833 21.9602 14.8219 21.9062 14.8222H20.2703C20.2163 14.822 20.1629 14.8332 20.1131 14.8549C20.0633 14.8767 20.0181 14.9086 19.9801 14.9488C19.9421 14.9891 19.912 15.0369 19.8917 15.0894C19.8713 15.142 19.861 15.1983 19.8615 15.255V18.52C19.8615 18.7592 20.0447 18.9529 20.2703 18.9529H21.9062C22.0152 18.9529 22.1197 18.9073 22.1967 18.8262C22.2738 18.7451 22.317 18.6352 22.317 18.5205C22.317 18.4058 22.2738 18.2958 22.1967 18.2147C22.1197 18.1336 22.0152 18.088 21.9062 18.088H20.6799V17.32H21.907C22.016 17.32 22.1205 17.2744 22.1975 17.1933C22.2746 17.1122 22.3178 17.0022 22.3178 16.8875C22.3178 16.7728 22.2746 16.6628 22.1975 16.5817C22.1205 16.5006 22.016 16.4551 21.907 16.4551H20.6799V15.687H21.907C22.1334 15.687 22.3158 15.4933 22.3158 15.255Z" fill="#ED068D"/>
<circle cx="17" cy="17" r="16" stroke="#ED068D" stroke-width="2"/>
</svg>
