<svg width="34" height="34" viewBox="0 0 34 34" fill="none" xmlns="http://www.w3.org/2000/svg">
<path d="M12 10C10.8969 10 10 10.8969 10 12V22C10 23.1031 10.8969 24 12 24H22C23.1031 24 24 23.1031 24 22V12C24 10.8969 23.1031 10 22 10H12ZM21.2844 12.625L18.0406 16.3313L21.8562 21.375H18.8687L16.5312 18.3156L13.8531 21.375H12.3688L15.8375 17.4094L12.1781 12.625H15.2406L17.3562 15.4219L19.8 12.625H21.2844ZM20.1031 20.4875L14.7937 13.4656H13.9094L19.2781 20.4875H20.1H20.1031Z" fill="#ED068D"/>
<circle cx="17" cy="17" r="16" stroke="#ED068D" stroke-width="2"/>
</svg>
