<svg width="84" height="84" viewBox="0 0 84 84" fill="none" xmlns="http://www.w3.org/2000/svg">
<path fill-rule="evenodd" clip-rule="evenodd" d="M39.3129 0.0344065L37.2864 0.244406C27.4532 1.22616 17.5464 6.29766 10.8474 13.7842C3.43969 22.0634 -0.32456 32.3377 0.0219403 43.2839C0.62569 62.1892 13.6194 78.1964 32.0522 82.7534C37.4791 84.0651 43.1126 84.2857 48.6255 83.4025C54.1383 82.5193 59.4209 80.5498 64.1664 77.6084C73.4998 71.7931 80.1801 62.5493 82.7724 51.8624C83.6754 48.1822 83.8854 46.3079 83.8854 41.9557C83.8854 37.6034 83.6754 35.7292 82.7724 32.0489C78.6144 15.0652 64.6284 2.57016 47.2247 0.291656C45.7337 0.0974065 40.3104 -0.0758435 39.3129 0.0344065ZM46.4529 8.16141C52.3513 8.93323 57.9455 11.2335 62.6807 14.8342C64.4079 16.1257 67.8047 19.5224 69.0962 21.2497C72.0414 25.1924 74.2202 29.8282 75.2072 34.2644C76.325 39.331 76.325 44.5803 75.2072 49.6469C73.0337 59.4172 66.1509 68.0902 57.0264 72.5527C53.7356 74.1593 50.2172 75.2501 46.5947 75.7867C44.3687 76.1279 39.5807 76.1279 37.3547 75.7867C27.1277 74.2327 18.4967 68.6519 13.0629 60.0734C11.7263 57.8574 10.6114 55.5151 9.73444 53.0804C8.48836 49.5057 7.87543 45.741 7.92319 41.9557C7.92319 36.5009 8.97844 31.8494 11.3147 27.0457C13.0997 23.3812 14.9162 20.8507 17.8929 17.8739C20.5292 15.1468 23.6363 12.9183 27.0647 11.2957C33.0759 8.35853 39.8225 7.26789 46.4529 8.16141ZM40.4312 22.4782C39.2552 22.8614 38.5884 23.5334 38.2629 24.6569C38.0739 25.2974 38.0529 26.7622 38.0844 35.7397C38.1264 46.0822 38.1264 46.0874 38.4309 46.6597C38.8354 47.3892 39.476 47.9594 40.2474 48.2767C40.9404 48.5182 43.0089 48.5182 43.7019 48.2767C44.4734 47.9594 45.114 47.3892 45.5184 46.6597C45.8229 46.0874 45.8229 46.0822 45.8649 35.7397C45.9069 24.4417 45.9069 24.4312 45.1037 23.4809C44.4527 22.7039 43.7544 22.4467 42.1847 22.4047C41.5992 22.3715 41.0119 22.3961 40.4312 22.4782ZM40.8512 55.2382C39.8013 55.6147 38.928 56.3665 38.3994 57.3487C38.0208 58.2903 37.9746 59.3329 38.2682 60.3044C38.5539 61.0638 39.0587 61.7212 39.7186 62.1932C40.3785 62.6653 41.1637 62.9306 41.9747 62.9557C43.5654 62.9557 45.1877 61.8007 45.6812 60.3044C45.9748 59.3329 45.9285 58.2903 45.5499 57.3487C45.1149 56.582 44.4845 55.9444 43.7229 55.5007C43.1139 55.1857 41.4707 55.0334 40.8512 55.2382Z" fill="#E51788"/>
</svg>
